# xmcd CD database file
#
# Track frame offsets:
#	182
#	23645
#	47995
#	67210
#	97810
#	102565
#	118805
#	133190
#	156912
#	172860
#	188137
#	202250
#
# Disc length: 3054 seconds
#
# Revision: 0
# Processed by: cddbd v1.5.2PL0 Copyright (c) Steve Scherf et al.
# Submitted via: CDex 1.70beta3
#
DISCID=af0bec0c
DTITLE=John Tchicai and Pierre Dorge - Ball at Louisiana
DYEAR=1981
DGENRE=Jazz
TTITLE0=Mr. Suso
TTITLE1=Go down Moses
TTITLE2=Soneya
TTITLE3=Mr. Natural
TTITLE4=Transportation of nudles
TTITLE5=Oda Eugenia
TTITLE6=Profile indiansky
TTITLE7=I can't get started
TTITLE8=Ball in Zrich
TTITLE9=Real Kirsten
TTITLE10=254, Bowery
TTITLE11=Chasing the cow
EXTD=YEAR: 1981
EXTT0=
EXTT1=
EXTT2=
EXTT3=
EXTT4=
EXTT5=
EXTT6=
EXTT7=
EXTT8=
EXTT9=
EXTT10=
EXTT11=
PLAYORDER=
